<svg id="visual" viewBox="0 0 1920 1080" width="1920" height="1080" xmlns="http://www.w3.org/2000/svg" xmlns:xlink="http://www.w3.org/1999/xlink" version="1.1"><path d="M0 174L175 174L175 152L349 152L349 120L524 120L524 44L698 44L698 120L873 120L873 33L1047 33L1047 55L1222 55L1222 185L1396 185L1396 195L1571 195L1571 98L1745 98L1745 98L1920 98L1920 77L1920 0L1920 0L1745 0L1745 0L1571 0L1571 0L1396 0L1396 0L1222 0L1222 0L1047 0L1047 0L873 0L873 0L698 0L698 0L524 0L524 0L349 0L349 0L175 0L175 0L0 0Z" fill="#cad9fa"></path><path d="M0 357L175 357L175 260L349 260L349 433L524 433L524 109L698 109L698 185L873 185L873 109L1047 109L1047 368L1222 368L1222 509L1396 509L1396 422L1571 422L1571 260L1745 260L1745 422L1920 422L1920 357L1920 75L1920 96L1745 96L1745 96L1571 96L1571 193L1396 193L1396 183L1222 183L1222 53L1047 53L1047 31L873 31L873 118L698 118L698 42L524 42L524 118L349 118L349 150L175 150L175 172L0 172Z" fill="#b8cdf8"></path><path d="M0 627L175 627L175 476L349 476L349 757L524 757L524 476L698 476L698 573L873 573L873 249L1047 249L1047 476L1222 476L1222 617L1396 617L1396 692L1571 692L1571 681L1745 681L1745 627L1920 627L1920 681L1920 355L1920 420L1745 420L1745 258L1571 258L1571 420L1396 420L1396 507L1222 507L1222 366L1047 366L1047 107L873 107L873 183L698 183L698 107L524 107L524 431L349 431L349 258L175 258L175 355L0 355Z" fill="#a4c2f6"></path><path d="M0 865L175 865L175 843L349 843L349 995L524 995L524 1038L698 1038L698 1027L873 1027L873 973L1047 973L1047 951L1222 951L1222 995L1396 995L1396 854L1571 854L1571 876L1745 876L1745 941L1920 941L1920 1016L1920 679L1920 625L1745 625L1745 679L1571 679L1571 690L1396 690L1396 615L1222 615L1222 474L1047 474L1047 247L873 247L873 571L698 571L698 474L524 474L524 755L349 755L349 474L175 474L175 625L0 625Z" fill="#8fb6f4"></path><path d="M0 1081L175 1081L175 1081L349 1081L349 1081L524 1081L524 1081L698 1081L698 1081L873 1081L873 1081L1047 1081L1047 1081L1222 1081L1222 1081L1396 1081L1396 1081L1571 1081L1571 1081L1745 1081L1745 1081L1920 1081L1920 1081L1920 1014L1920 939L1745 939L1745 874L1571 874L1571 852L1396 852L1396 993L1222 993L1222 949L1047 949L1047 971L873 971L873 1025L698 1025L698 1036L524 1036L524 993L349 993L349 841L175 841L175 863L0 863Z" fill="#79abf2"></path></svg>