<svg width="46" height="51" viewBox="0 0 46 51" fill="none" xmlns="http://www.w3.org/2000/svg">
<path d="M7.83135 44.3283C7.83135 44.3283 8.47016 47.4165 8.38726 51H37.4957C37.4137 47.419 38.0518 44.3341 38.0518 44.3341C40.9263 41.9921 42.0355 35.7747 42.0355 35.7747C46.809 32.1087 46.5748 26.7443 44.37 26.8025C42.6007 26.849 43.0014 25.3814 43.0014 25.3814C45.9863 1.23301 24.5811 0 24.5811 0H21.3136C21.3136 0 -0.10122 1.23301 2.87979 25.3756C2.87979 25.3756 3.28047 26.8451 1.49574 26.7966C-0.703234 26.7385 -0.908416 32.1029 3.84764 35.7689C3.84764 35.7689 4.95487 41.9844 7.83135 44.3283Z" fill="black"/>
</svg>
