<svg width="50" height="115" viewBox="0 0 50 115" fill="none" xmlns="http://www.w3.org/2000/svg">
<path d="M49.3925 6.5489L30.0489 0C30.0489 0 28.87 19.102 22.457 29.3421C22.457 29.3421 18.7385 35.9182 18.3087 51.0517C18.3087 51.0517 17.2189 63.8781 15.7865 67.8679C14.9135 70.2118 11.8744 74.1783 9.49736 77.1523C4.83615 82.9548 -2.99771 95.0658 1.19312 96.4481C1.19312 96.4481 4.46255 96.7661 8.75985 88.1951C8.75985 88.1951 8.6708 91.4773 5.22329 101.039C4.54579 102.811 1.66351 111.876 6.33246 108.617C6.33246 108.617 8.49466 107.13 11.3053 97.8052C11.3053 97.8052 9.79739 113.507 11.4757 114.296C13.6688 115.372 14.8651 112.266 15.8543 98.5245C15.8543 98.5245 16.8686 94.0868 17.3389 111.025C17.3622 111.9 18.6417 116.256 20.4284 112.537C21.9363 109.42 21.2588 101.169 21.2588 98.3946C21.2588 98.3946 23.1926 109.1 25.0005 109.1C25.0005 109.1 27.1279 111.603 26.2549 98.2996C26.1136 96.1263 26.8743 91.6654 26.9691 90.3664L27.1743 85.2657C27.1743 85.2657 26.6439 79.4225 26.6439 76.9894C26.6439 76.3865 28.7307 68.4301 34.2339 60.0317C34.2339 60.0317 45.6798 39.6987 44.9423 26.4108C44.9423 26.4108 44.7836 13.7318 49.3925 6.5489Z" fill="black"/>
</svg>
