<svg width="33" height="129" viewBox="0 0 33 129" fill="none" xmlns="http://www.w3.org/2000/svg">
<path d="M28.6819 0.00579834L1.657 0C3.37204 5.99833 2.35774 21.1298 3.7321 24.9083C4.35153 26.5504 4.02632 28.0626 2.69455 31.781C-1.92601 44.7896 -1.33756 53.9519 10.2845 88.4684C10.2845 88.4684 13.8617 96.1166 12.0537 109.858C12.0537 109.858 4.62833 125.158 9.38439 125.465C9.38439 125.465 9.75606 126.478 11.3646 125.676C11.3646 125.676 13.9333 128.332 16.7091 126.891C16.7091 126.891 19.2798 128.946 21.4768 127.116C21.4768 127.116 23.2383 129.146 25.807 127.506C25.807 127.506 29.179 129.784 31.1825 127.316C31.1825 127.316 34.7423 128.107 28.4047 112.027C28.4047 112.027 25.9774 94.9805 24.6398 91.6285C22.0885 85.2793 23.8907 67.8776 24.4346 64.1475C25.3115 57.9127 24.8411 47.2905 23.2383 39.0724C22.0653 33.1827 25.2418 22.0623 26.4148 15.2265C27.055 11.4039 27.8583 6.00472 28.6819 0.00579834Z" fill="black"/>
</svg>
