<svg width="33" height="129" viewBox="0 0 33 129" fill="none" xmlns="http://www.w3.org/2000/svg">
<path d="M30.4997 0L3.49686 3.05176e-05C4.32092 5.99975 5.12619 11.4008 5.77089 15.2265C6.92652 22.0507 10.0953 33.1692 8.95516 39.0725C7.32722 47.3003 6.85683 57.9476 7.75307 64.1476C8.3183 67.9125 10.0972 85.2774 7.55177 91.6285C6.22 94.9592 3.77904 112.027 3.77904 112.027C-2.57979 128.107 1.00903 127.316 1.00903 127.316C2.97766 129.736 6.34968 127.506 6.34968 127.506C8.91838 129.146 10.6973 127.116 10.6973 127.116C12.9021 128.945 15.4727 126.891 15.4727 126.891C18.2427 128.332 20.8114 125.676 20.8114 125.676C22.4026 126.479 22.7917 125.465 22.7917 125.465C27.5652 125.158 20.1281 109.858 20.1281 109.858C18.3473 96.1166 21.8954 88.4685 21.8954 88.4685C33.5175 53.95 34.1079 44.7897 29.4622 31.781C28.1536 28.0258 27.8226 26.5388 28.4246 24.9084C29.8164 21.1454 28.8021 6.00995 30.4997 0Z" fill="black"/>
</svg>
