<svg width="50" height="114" viewBox="0 0 50 114" fill="none" xmlns="http://www.w3.org/2000/svg">
<path d="M26.8987 27.996C21.5304 19.3902 19.8246 4.52579 19.4168 0L0 5.20273C4.60894 12.3856 4.43279 25.0647 4.43279 25.0647C3.70109 38.3622 15.1586 58.6855 15.1586 58.6855C20.6638 67.0839 22.7486 75.052 22.7486 75.6433C22.7486 78.0628 22.2201 83.9196 22.2201 83.9196L22.4311 89.0203C22.526 90.3192 23.2557 94.7918 23.1376 96.9534C22.2782 110.257 24.3881 107.754 24.3881 107.754C26.169 107.754 28.126 97.0484 28.126 97.0484C28.126 99.8091 27.4523 108.074 28.939 111.191C30.7179 114.91 32.0264 110.553 32.0497 109.679C32.52 92.7406 33.5363 97.1783 33.5363 97.1783C34.5255 110.92 35.7411 114.024 37.9207 112.95C39.5719 112.161 38.062 96.459 38.062 96.459C40.8901 105.786 43.0349 107.271 43.0349 107.271C47.7019 110.553 44.8157 101.488 44.1673 99.6928C40.714 90.1544 40.6075 86.8489 40.6075 86.8489C44.9222 95.4199 48.1742 95.102 48.1742 95.102C52.3825 93.7565 44.4963 81.6203 39.8758 75.8061C37.5181 72.8438 34.4771 68.8772 33.5944 66.5217C32.1562 62.5319 31.0702 49.7055 31.0702 49.7055C30.6347 34.5701 26.8987 27.996 26.8987 27.996Z" fill="black"/>
</svg>
