<svg width="108" height="123" viewBox="0 0 108 123" fill="none" xmlns="http://www.w3.org/2000/svg">
<path d="M-9.53674e-07 70.0347L19.3436 76.5836C19.3436 76.5836 22.615 112.5 20.3986 122.583L87.5312 122.589C85.28 112.508 88.5804 76.5894 88.5804 76.5894L107.997 71.3867C107.92 70.5271 107.889 70.0405 107.889 70.0405L107.607 37.7903C105.367 15.7919 89.1824 15.6329 89.1824 15.6329C72.8236 13.1941 70.5472 7.90143 70.5472 7.90143C69.0492 5.74232 68.569 2.72729 68.5065 0H39.398C39.335 2.72576 38.8544 5.73804 37.3574 7.89561C37.3574 7.89561 35.0888 13.1883 18.7223 15.6271C18.7223 15.6271 2.51062 15.7861 0.305837 37.7845L-9.53674e-07 70.0347Z" fill="black"/>
</svg>
